<svg xmlns="http://www.w3.org/2000/svg" viewBox="0 0 500 600" role="img" aria-label="Shield of The Sidennic League">
  <title>Shield of the Sidennic League</title>
  <path d="M20 20H480V285C480 430 380 520 250 580C120 520 20 430 20 285Z" fill="#2e7d32"/>
  <defs>
    <g id="apple">
      <circle cx="0" cy="1" r="9" fill="#f4c430" stroke="#8a5a12" stroke-width="1.2"/>
      <path d="M0 -8 C 0 -8 -1 -11 0.5 -13.5" fill="none" stroke="#8a5a12" stroke-width="1.2" stroke-linecap="round"/>
      <path d="M0.5 -13 C 2.8 -14.5 5.1 -13.5 5.5 -11.2 C 3.2 -11.5 1.3 -11.9 0.5 -13 Z" fill="#5a8f3a" stroke="#3d5f28" stroke-width="0.6"/>
    </g>
  </defs>
  <g transform="translate(250,245) scale(4.6)">
    <use href="#apple" x="-24" y="-14"/>
    <use href="#apple" x="-8" y="-14"/>
    <use href="#apple" x="8" y="-14"/>
    <use href="#apple" x="24" y="-14"/>
    <use href="#apple" x="-16" y="12"/>
    <use href="#apple" x="0" y="12"/>
    <use href="#apple" x="16" y="12"/>
  </g>
<path d="M20 20H480V285C480 430 380 520 250 580C120 520 20 430 20 285Z" fill="none" stroke="#a78b60" stroke-width="14"/></svg>
